<svg width="96" height="28" viewBox="0 0 96 28" fill="none" xmlns="http://www.w3.org/2000/svg">
<path fill-rule="evenodd" clip-rule="evenodd" d="M11.215 2.85157L12.7092 0.550018L14.1659 2.87546L19.0695 10.7035L21.719 6.47393L24.6851 8.33196L21.1345 14L24.6851 19.668L21.719 21.5261L19.0695 17.2965L14.1659 25.1245L12.7092 27.45L11.215 25.1484L6.06394 17.2139L3.24899 21.5499L0.313354 19.6441L3.97751 14L0.313356 8.35584L3.24899 6.45005L6.06394 10.7861L11.215 2.85157ZM8.15037 14L12.6565 20.9411L17.0045 14L12.6565 7.05893L8.15037 14Z" fill="#4062BB"/>
<path d="M43.3984 8.57812L39.5156 20H36.875L33 8.57812H35.4453L37.5938 15.375C37.6302 15.4896 37.6901 15.7057 37.7734 16.0234C37.8568 16.3359 37.9401 16.6693 38.0234 17.0234C38.112 17.3724 38.1719 17.6615 38.2031 17.8906C38.2344 17.6615 38.2891 17.3724 38.3672 17.0234C38.4505 16.6745 38.5312 16.3438 38.6094 16.0312C38.6927 15.7135 38.7526 15.4948 38.7891 15.375L40.9531 8.57812H43.3984ZM47.0391 11.2656V20H44.6562V11.2656H47.0391ZM45.8516 7.84375C46.2057 7.84375 46.5104 7.92708 46.7656 8.09375C47.0208 8.25521 47.1484 8.5599 47.1484 9.00781C47.1484 9.45052 47.0208 9.75781 46.7656 9.92969C46.5104 10.0964 46.2057 10.1797 45.8516 10.1797C45.4922 10.1797 45.1849 10.0964 44.9297 9.92969C44.6797 9.75781 44.5547 9.45052 44.5547 9.00781C44.5547 8.5599 44.6797 8.25521 44.9297 8.09375C45.1849 7.92708 45.4922 7.84375 45.8516 7.84375ZM53.2266 18.2578C53.487 18.2578 53.7396 18.2318 53.9844 18.1797C54.2344 18.1276 54.4818 18.0625 54.7266 17.9844V19.7578C54.4714 19.8724 54.1536 19.9661 53.7734 20.0391C53.3984 20.1172 52.987 20.1562 52.5391 20.1562C52.0182 20.1562 51.5495 20.0729 51.1328 19.9062C50.7214 19.7344 50.3958 19.4401 50.1562 19.0234C49.9219 18.6016 49.8047 18.0156 49.8047 17.2656V13.0547H48.6641V12.0469L49.9766 11.25L50.6641 9.40625H52.1875V11.2656H54.6328V13.0547H52.1875V17.2656C52.1875 17.599 52.2812 17.849 52.4688 18.0156C52.6615 18.1771 52.9141 18.2578 53.2266 18.2578ZM60.0781 11.0859C61.25 11.0859 62.1484 11.3411 62.7734 11.8516C63.3984 12.362 63.7109 13.138 63.7109 14.1797V20H62.0469L61.5859 18.8125H61.5234C61.2734 19.125 61.0182 19.3802 60.7578 19.5781C60.4974 19.776 60.1979 19.9219 59.8594 20.0156C59.5208 20.1094 59.1094 20.1562 58.625 20.1562C58.1094 20.1562 57.6458 20.0573 57.2344 19.8594C56.8281 19.6615 56.5078 19.3594 56.2734 18.9531C56.0391 18.5417 55.9219 18.0208 55.9219 17.3906C55.9219 16.4635 56.2474 15.7812 56.8984 15.3438C57.5495 14.901 58.526 14.6562 59.8281 14.6094L61.3438 14.5625V14.1797C61.3438 13.7214 61.224 13.3854 60.9844 13.1719C60.7448 12.9583 60.4115 12.8516 59.9844 12.8516C59.5625 12.8516 59.1484 12.9115 58.7422 13.0312C58.3359 13.151 57.9297 13.3021 57.5234 13.4844L56.7344 11.875C57.1979 11.6302 57.7161 11.4375 58.2891 11.2969C58.8672 11.1562 59.4635 11.0859 60.0781 11.0859ZM61.3438 15.9531L60.4219 15.9844C59.651 16.0052 59.1146 16.1432 58.8125 16.3984C58.5156 16.6536 58.3672 16.9896 58.3672 17.4062C58.3672 17.7708 58.474 18.0312 58.6875 18.1875C58.901 18.3385 59.1797 18.4141 59.5234 18.4141C60.0339 18.4141 60.4635 18.263 60.8125 17.9609C61.1667 17.6589 61.3438 17.2292 61.3438 16.6719V15.9531ZM68.5547 20H66.1719V7.84375H68.5547V20ZM78.2422 20L77.4141 17.2812H73.25L72.4219 20H69.8125L73.8438 8.53125H76.8047L80.8516 20H78.2422ZM76.8359 15.25L76.0078 12.5938C75.9557 12.4167 75.8854 12.1901 75.7969 11.9141C75.7135 11.6328 75.6276 11.349 75.5391 11.0625C75.4557 10.7708 75.388 10.5182 75.3359 10.3047C75.2839 10.5182 75.2109 10.7839 75.1172 11.1016C75.0286 11.4141 74.9427 11.7109 74.8594 11.9922C74.776 12.2734 74.7161 12.474 74.6797 12.5938L73.8594 15.25H76.8359ZM84.4922 11.2656V20H82.1094V11.2656H84.4922ZM83.3047 7.84375C83.6589 7.84375 83.9635 7.92708 84.2188 8.09375C84.474 8.25521 84.6016 8.5599 84.6016 9.00781C84.6016 9.45052 84.474 9.75781 84.2188 9.92969C83.9635 10.0964 83.6589 10.1797 83.3047 10.1797C82.9453 10.1797 82.638 10.0964 82.3828 9.92969C82.1328 9.75781 82.0078 9.45052 82.0078 9.00781C82.0078 8.5599 82.1328 8.25521 82.3828 8.09375C82.638 7.92708 82.9453 7.84375 83.3047 7.84375ZM89.7656 20.1562C88.7917 20.1562 87.9974 19.776 87.3828 19.0156C86.7734 18.25 86.4688 17.1276 86.4688 15.6484C86.4688 14.1536 86.7786 13.0234 87.3984 12.2578C88.0182 11.487 88.8281 11.1016 89.8281 11.1016C90.2448 11.1016 90.612 11.1589 90.9297 11.2734C91.2474 11.388 91.5208 11.5417 91.75 11.7344C91.9844 11.9271 92.1823 12.1432 92.3438 12.3828H92.4219C92.3906 12.2161 92.3516 11.9714 92.3047 11.6484C92.263 11.3203 92.2422 10.9844 92.2422 10.6406V7.84375H94.6328V20H92.8047L92.3438 18.8672H92.2422C92.0911 19.1068 91.901 19.3255 91.6719 19.5234C91.4479 19.7161 91.1797 19.8698 90.8672 19.9844C90.5547 20.099 90.1875 20.1562 89.7656 20.1562ZM90.6016 18.2578C91.2526 18.2578 91.7109 18.0651 91.9766 17.6797C92.2474 17.2891 92.3906 16.7031 92.4062 15.9219V15.6641C92.4062 14.8151 92.276 14.1667 92.0156 13.7188C91.7552 13.2656 91.2708 13.0391 90.5625 13.0391C90.0365 13.0391 89.625 13.2656 89.3281 13.7188C89.0312 14.1719 88.8828 14.8255 88.8828 15.6797C88.8828 16.5339 89.0312 17.1771 89.3281 17.6094C89.6302 18.0417 90.0547 18.2578 90.6016 18.2578Z" fill="#4062BB"/>
</svg>
